<svg width="34" height="20" viewBox="0 0 34 20" fill="none" xmlns="http://www.w3.org/2000/svg">
<path d="M24.6094 14.4453C25.3711 14.4453 26.0156 13.8594 26.0156 13.0391C26.0156 12.2773 25.3711 11.6328 24.6094 11.6328C23.8477 11.6328 23.2031 12.2773 23.2031 13.0391C23.2031 13.8594 23.8477 14.4453 24.6094 14.4453ZM9.08203 14.4453C9.84375 14.4453 10.4883 13.8594 10.4883 13.0391C10.4883 12.2773 9.84375 11.6328 9.08203 11.6328C8.32031 11.6328 7.67578 12.2773 7.67578 13.0391C7.67578 13.8594 8.32031 14.4453 9.08203 14.4453ZM25.1367 6.00781C29.9414 8.64453 33.2227 13.5078 33.75 19.25H0C0.46875 13.5078 3.75 8.64453 8.55469 6.00781L5.74219 1.14453C5.68359 1.02734 5.68359 0.910156 5.68359 0.792969C5.68359 0.5 5.91797 0.207031 6.26953 0.207031C6.50391 0.207031 6.67969 0.382812 6.79688 0.558594L9.60938 5.48047C11.8359 4.48438 14.2969 3.95703 16.875 3.95703C19.4531 3.95703 21.8555 4.48438 24.082 5.48047L26.8945 0.558594C27.0117 0.382812 27.1875 0.207031 27.4219 0.207031C27.7734 0.207031 28.0078 0.5 28.0078 0.792969C28.0078 0.910156 28.0078 1.02734 27.9492 1.14453L25.1367 6.00781Z" fill="white"/>
</svg>
