<svg width="32" height="31" viewBox="0 0 32 31" fill="none" xmlns="http://www.w3.org/2000/svg">
<path fill-rule="evenodd" clip-rule="evenodd" d="M16.1939 0.171387C7.73832 0.171387 0.883789 7.04082 0.883789 15.5147C0.883789 23.9885 7.73832 30.8579 16.1939 30.8579C24.6495 30.8579 31.5041 23.9885 31.5041 15.5147C31.5041 7.04082 24.6495 0.171387 16.1939 0.171387ZM14.6078 28.5711C11.703 28.2225 9.01532 26.9194 6.91451 24.8141C4.43589 22.3301 3.07093 19.0275 3.07093 15.5147C3.07093 12.3523 4.17768 9.36083 6.20664 6.98299C6.2589 7.61125 6.38793 8.28481 6.35488 8.76628C6.23417 10.5215 6.06134 11.6201 7.08653 13.1009C7.48592 13.6777 7.58404 14.5045 7.77843 15.1721C7.96856 15.8252 8.7281 16.1678 9.25196 16.5702C10.3089 17.3823 11.32 18.3262 12.4407 19.0409C13.1804 19.5126 13.6424 19.7473 13.4258 20.6519C13.2516 21.3793 13.2029 21.8275 12.8274 22.4756C12.7128 22.6733 13.26 23.9448 13.4421 24.1273C13.994 24.6804 14.5416 25.1877 15.1432 25.6856C16.0759 26.4579 15.0526 27.4613 14.6078 28.5711ZM25.4733 24.8141C23.5865 26.7049 21.2263 27.9481 18.6606 28.4346C19.0242 27.5335 19.6716 26.7328 20.2722 26.2687C20.7946 25.8647 21.4488 25.0878 21.7217 24.4723C21.9943 23.8577 22.3555 23.3249 22.7211 22.7597C23.2411 21.9557 21.4389 20.7433 20.8549 20.4891C19.5407 19.9174 18.5515 19.1459 17.3836 18.3223C16.5514 17.7355 14.862 18.6287 13.9226 18.2177C12.6359 17.6547 11.5758 16.6763 10.4573 15.8322C9.30319 14.9611 9.35898 13.9456 9.35898 12.6605C10.263 12.6939 11.5491 12.4098 12.1493 13.1384C12.3386 13.3683 12.9898 14.3955 13.4257 14.0305C13.7819 13.7323 13.1619 12.5368 13.0421 12.2558C12.6737 11.3916 13.8815 11.0546 14.4997 10.4686C15.3065 9.70406 17.0369 8.50507 16.9002 7.95707C16.7634 7.40906 15.1687 5.85644 14.232 6.09869C14.0917 6.13498 12.8558 7.43363 12.617 7.63737C12.6234 7.21351 12.6297 6.78972 12.6362 6.36587C12.6402 6.09824 12.138 5.82354 12.1613 5.65093C12.2202 5.21468 13.4319 4.42295 13.7333 4.07551C13.5222 3.94325 12.8016 3.32295 12.5835 3.41398C12.0554 3.63454 11.4591 3.7865 10.931 4.00698C10.931 3.82346 10.9088 3.65107 10.8823 3.48081C11.9404 3.01129 13.0601 2.68481 14.2174 2.51065L15.2541 2.92816L15.986 3.79867L16.7165 4.55352L17.355 4.75969L18.3692 3.8011L18.1077 3.11678V2.50165C20.1135 2.79361 22.0077 3.54351 23.6666 4.69987C23.3698 4.7265 23.0437 4.77024 22.6757 4.81715C22.5237 4.72716 22.3287 4.68629 22.1631 4.62367C22.6438 5.65949 23.1452 6.68099 23.6546 7.70309C24.1988 8.7949 25.4059 9.966 25.6179 11.1185C25.8677 12.477 25.6944 13.7109 25.8311 15.3092C25.9627 16.8484 27.5626 18.5971 27.5626 18.5971C27.5626 18.5971 28.3014 18.8493 28.9158 18.7615C28.3431 21.0322 27.1689 23.1147 25.4733 24.8141Z" fill="black" fill-opacity="0.54"/>
</svg>
