<svg width="28" height="31" viewBox="0 0 28 31" fill="none" xmlns="http://www.w3.org/2000/svg">
<path d="M21.5078 8.30859C20.5703 8.19141 19.2812 8.30859 17.6406 8.71875C16.2344 9.12891 15.0625 9.59766 14.0664 10.125C13.1289 9.59766 11.957 9.12891 10.5508 8.71875C8.91016 8.30859 7.62109 8.19141 6.68359 8.30859C5.16016 8.60156 3.87109 9.42188 2.93359 10.7695C2.05469 12 1.46875 13.5234 1.17578 15.3398C0.882812 17.0391 0.882812 18.7383 1.23438 20.3789C1.70312 23.1914 2.64062 25.4766 4.04688 27.3516C5.6875 29.6367 7.79688 30.75 10.375 30.75C10.9609 30.75 11.6641 30.5742 12.4258 30.1641C12.8945 29.8711 13.4805 29.6953 14.0664 29.6953C14.7109 29.6953 15.2969 29.8711 15.7656 30.1641C16.5273 30.5742 17.2305 30.75 17.8164 30.75C20.3945 30.75 22.5039 29.6367 24.1445 27.3516C25.5508 25.4766 26.4883 23.1914 26.957 20.3789C27.3086 18.7383 27.3086 17.0391 27.0156 15.3398C26.7227 13.5234 26.1367 12 25.2578 10.7695C24.3203 9.42188 23.0312 8.60156 21.5078 8.30859ZM18.2852 5.90625C18.8125 5.37891 19.1641 4.67578 19.3984 3.73828C19.6328 3.15234 19.6914 2.44922 19.6914 1.6875L19.6328 0.808594L18.7539 0.75C18.0508 0.75 17.3477 0.867188 16.7031 1.04297C15.8242 1.27734 15.1211 1.6875 14.5352 2.15625C13.832 2.91797 13.3633 3.97266 13.2461 5.37891C13.1289 6.08203 13.1289 6.72656 13.2461 7.25391L14.0664 7.3125C14.8281 7.3125 15.5312 7.25391 16.1172 7.01953C17.0547 6.78516 17.7578 6.43359 18.2852 5.90625Z" fill="white"/>
</svg>
