<svg width="18" height="18" viewBox="0 0 18 18" fill="none" xmlns="http://www.w3.org/2000/svg">
<g clip-path="url(#clip0_28_157)">
<path d="M8.86328 6.14936L11.44 8.72604L11.4522 8.59107C11.4522 7.23728 10.352 6.13708 8.99825 6.13708L8.86328 6.14936Z" fill="black"/>
<path d="M8.99795 4.50103C11.2556 4.50103 13.0879 6.33335 13.0879 8.59102C13.0879 9.11863 12.9816 9.6217 12.7976 10.0839L15.1902 12.4765C16.4254 11.4458 17.3988 10.1125 18 8.59102C16.5808 5.00003 13.092 2.45605 8.99798 2.45605C7.85278 2.45605 6.75669 2.66054 5.73828 3.02864L7.50515 4.79141C7.96727 4.61146 8.47034 4.50103 8.99795 4.50103Z" fill="black"/>
<path d="M0.817983 2.27207L2.68301 4.1371L3.05521 4.5093C1.70552 5.56452 0.638037 6.96739 0 8.59109C1.41515 12.1821 4.90798 14.7261 8.99797 14.7261C10.2659 14.7261 11.4765 14.4807 12.5849 14.0348L12.9326 14.3825L15.317 16.771L16.36 15.7322L1.86093 1.22913L0.817983 2.27207ZM5.34153 6.79151L6.60533 8.05531C6.56852 8.2312 6.54398 8.40704 6.54398 8.59109C6.54398 9.94488 7.64417 11.0451 8.99797 11.0451C9.18202 11.0451 9.3579 11.0205 9.52968 10.9837L10.7935 12.2475C10.2495 12.5175 9.64421 12.6811 8.99797 12.6811C6.7403 12.6811 4.90798 10.8488 4.90798 8.59109C4.90798 7.94488 5.07159 7.33955 5.34153 6.79151Z" fill="black"/>
</g>
<defs>
<clipPath id="clip0_28_157">
<rect width="18" height="18" fill="white"/>
</clipPath>
</defs>
</svg>
