<svg width="23" height="15" viewBox="0 0 23 15" fill="none" xmlns="http://www.w3.org/2000/svg">
<path d="M11.25 3.125C10.8203 3.16406 10.3906 3.20312 10 3.32031C10.1953 3.63281 10.2734 4.02344 10.3125 4.375C10.3125 5.58594 9.29688 6.5625 8.125 6.5625C7.73438 6.5625 7.34375 6.48438 7.07031 6.28906C6.95312 6.67969 6.875 7.07031 6.875 7.5C6.875 9.92188 8.82812 11.875 11.25 11.875C13.6719 11.875 15.625 9.92188 15.625 7.5C15.625 5.11719 13.6719 3.16406 11.25 3.16406V3.125ZM22.3438 6.95312C20.2344 2.8125 16.0156 0 11.25 0C6.44531 0 2.22656 2.8125 0.117188 6.95312C0.0390625 7.10938 0 7.30469 0 7.5C0 7.73438 0.0390625 7.92969 0.117188 8.08594C2.22656 12.2266 6.44531 15 11.25 15C16.0156 15 20.2344 12.2266 22.3438 8.08594C22.4219 7.92969 22.4609 7.73438 22.4609 7.53906C22.4609 7.30469 22.4219 7.10938 22.3438 6.95312ZM11.25 13.125C7.38281 13.125 3.82812 10.9766 1.95312 7.5C3.82812 4.02344 7.38281 1.875 11.25 1.875C15.0781 1.875 18.6328 4.02344 20.5078 7.5C18.6328 10.9766 15.0781 13.125 11.25 13.125Z" fill="#2D3436" fill-opacity="0.8"/>
</svg>
