<svg width="20" height="21" viewBox="0 0 20 21" fill="none" xmlns="http://www.w3.org/2000/svg">
<path d="M14.4922 9.79688L7.61719 5.61719C6.99219 5.30469 6.25 5.73438 6.25 6.4375V14.5625C6.25 15.3047 6.99219 15.7344 7.61719 15.3828L14.4922 11.4375C15.1562 11.0859 15.1562 10.1875 14.4922 9.79688ZM19.6875 10.5C19.6875 5.14844 15.3516 0.8125 10 0.8125C4.64844 0.8125 0.3125 5.14844 0.3125 10.5C0.3125 15.8516 4.64844 20.1875 10 20.1875C15.3516 20.1875 19.6875 15.8516 19.6875 10.5ZM2.1875 10.5C2.1875 6.20312 5.66406 2.6875 10 2.6875C14.2969 2.6875 17.8125 6.20312 17.8125 10.5C17.8125 14.8359 14.2969 18.3125 10 18.3125C5.66406 18.3125 2.1875 14.8359 2.1875 10.5Z" fill="#2D3436" fill-opacity="0.8"/>
</svg>
