<svg width="23" height="21" viewBox="0 0 23 21" fill="none" xmlns="http://www.w3.org/2000/svg">
<path d="M20.625 7.21875L14.9219 6.39844L12.3438 1.20312C11.9141 0.304688 10.5859 0.265625 10.1172 1.20312L7.57812 6.39844L1.83594 7.21875C0.820312 7.375 0.429688 8.625 1.17188 9.36719L5.27344 13.3906L4.29688 19.0547C4.14062 20.0703 5.23438 20.8516 6.13281 20.3828L11.25 17.6875L16.3281 20.3828C17.2266 20.8516 18.3203 20.0703 18.1641 19.0547L17.1875 13.3906L21.2891 9.36719C22.0312 8.625 21.6406 7.375 20.625 7.21875ZM15.1562 12.7266L16.0938 18.1172L11.25 15.5781L6.36719 18.1172L7.30469 12.7266L3.35938 8.89844L8.78906 8.11719L11.25 3.19531L13.6719 8.11719L19.1016 8.89844L15.1562 12.7266Z" fill="#2D3436" fill-opacity="0.8"/>
</svg>
