<svg width="22" height="26" viewBox="0 0 22 26" fill="none" xmlns="http://www.w3.org/2000/svg">
<path d="M6.05469 16.1406H15.8203C16.1133 16.1406 16.4062 15.8965 16.4062 15.5547V14.3828C16.4062 14.0898 16.1133 13.7969 15.8203 13.7969H6.05469C5.71289 13.7969 5.46875 14.0898 5.46875 14.3828V15.5547C5.46875 15.8965 5.71289 16.1406 6.05469 16.1406ZM21.875 5.59375C21.875 4.32422 20.8008 3.25 19.5312 3.25H17.1875V0.710938C17.1875 0.417969 16.8945 0.125 16.6016 0.125H14.6484C14.3066 0.125 14.0625 0.417969 14.0625 0.710938V3.25H7.8125V0.710938C7.8125 0.417969 7.51953 0.125 7.22656 0.125H5.27344C4.93164 0.125 4.6875 0.417969 4.6875 0.710938V3.25H2.34375C1.02539 3.25 0 4.32422 0 5.59375V22.7812C0 24.0996 1.02539 25.125 2.34375 25.125H19.5312C20.8008 25.125 21.875 24.0996 21.875 22.7812V5.59375ZM19.5312 22.4883C19.5312 22.6836 19.3848 22.7812 19.2383 22.7812H2.63672C2.44141 22.7812 2.34375 22.6836 2.34375 22.4883V7.9375H19.5312V22.4883Z" fill="#49BBBD"/>
</svg>
