<svg width="13" height="15" viewBox="0 0 13 15" fill="none" xmlns="http://www.w3.org/2000/svg">
<path d="M10.9375 7.75H4.15625V4.93359C4.15625 3.86719 5.00391 2.96484 6.09766 2.9375C7.19141 2.9375 8.09375 3.83984 8.09375 4.90625V5.34375C8.09375 5.72656 8.36719 6 8.75 6H9.625C9.98047 6 10.2812 5.72656 10.2812 5.34375V4.90625C10.2812 2.60938 8.39453 0.75 6.09766 0.75C3.80078 0.777344 1.96875 2.66406 1.96875 4.96094V7.75H1.3125C0.574219 7.75 0 8.35156 0 9.0625V13.4375C0 14.1758 0.574219 14.75 1.3125 14.75H10.9375C11.6484 14.75 12.25 14.1758 12.25 13.4375V9.0625C12.25 8.35156 11.6484 7.75 10.9375 7.75ZM7.21875 11.9062C7.21875 12.5352 6.72656 13 6.125 13C5.49609 13 5.03125 12.5352 5.03125 11.9062V10.5938C5.03125 9.99219 5.49609 9.5 6.125 9.5C6.72656 9.5 7.21875 9.99219 7.21875 10.5938V11.9062Z" fill="black"/>
</svg>
