<svg width="25" height="30" viewBox="0 0 25 30" fill="none" xmlns="http://www.w3.org/2000/svg">
<path fill-rule="evenodd" clip-rule="evenodd" d="M12.7143 3.48242C9.72447 3.48242 7.29199 5.97388 7.29199 9.03624C7.29199 12.0986 9.72447 14.5901 12.7143 14.5901C15.7042 14.5901 18.1367 12.0986 18.1367 9.03624C18.1367 5.97388 15.7042 3.48242 12.7143 3.48242Z" fill="black" fill-opacity="0.54"/>
<path fill-rule="evenodd" clip-rule="evenodd" d="M12.7142 0.958008C8.35833 0.958008 4.82715 4.57481 4.82715 9.03629C4.82715 13.4978 8.35833 17.1146 12.7142 17.1146C17.0701 17.1146 20.6012 13.4978 20.6012 9.03629C20.6012 4.57481 17.0701 0.958008 12.7142 0.958008ZM12.7142 15.095C9.44723 15.095 6.79891 12.3825 6.79891 9.03629C6.79891 5.69011 9.44723 2.97758 12.7142 2.97758C15.9812 2.97758 18.6295 5.69011 18.6295 9.03629C18.6295 12.3825 15.9812 15.095 12.7142 15.095Z" fill="black" fill-opacity="0.54"/>
<path fill-rule="evenodd" clip-rule="evenodd" d="M6.00371 14.9824L0.883789 24.1835H6.79907L9.75671 29.2324L12.7144 22.5547L14.7872 17.8748C14.1222 18.0378 13.4282 18.1247 12.7144 18.1247C10.0337 18.1247 7.63072 16.9071 6.00371 14.9824Z" fill="black" fill-opacity="0.54"/>
<path fill-rule="evenodd" clip-rule="evenodd" d="M19.4246 14.9824C18.4956 16.0813 17.3136 16.9497 15.9714 17.4926L13.2139 23.6834L15.6716 29.2323L18.6292 24.1834H24.5445L19.4246 14.9824Z" fill="black" fill-opacity="0.54"/>
</svg>
