<svg width="172" height="41" viewBox="0 0 172 41" fill="none" xmlns="http://www.w3.org/2000/svg">
<path d="M11.4746 24.5957C11.4746 24.2441 11.4199 23.9316 11.3105 23.6582C11.209 23.3848 11.0254 23.1348 10.7598 22.9082C10.4941 22.6816 10.1191 22.4629 9.63477 22.252C9.1582 22.0332 8.54883 21.8105 7.80664 21.584C6.99414 21.334 6.24414 21.0566 5.55664 20.752C4.87695 20.4395 4.2832 20.0801 3.77539 19.6738C3.26758 19.2598 2.87305 18.7871 2.5918 18.2559C2.31055 17.7168 2.16992 17.0957 2.16992 16.3926C2.16992 15.6973 2.31445 15.0645 2.60352 14.4941C2.90039 13.9238 3.31836 13.4316 3.85742 13.0176C4.4043 12.5957 5.04883 12.2715 5.79102 12.0449C6.5332 11.8105 7.35352 11.6934 8.25195 11.6934C9.51758 11.6934 10.6074 11.9277 11.5215 12.3965C12.4434 12.8652 13.1504 13.4941 13.6426 14.2832C14.1426 15.0723 14.3926 15.9434 14.3926 16.8965H11.4746C11.4746 16.334 11.3535 15.8379 11.1113 15.4082C10.877 14.9707 10.5176 14.627 10.0332 14.377C9.55664 14.127 8.95117 14.002 8.2168 14.002C7.52148 14.002 6.94336 14.1074 6.48242 14.3184C6.02148 14.5293 5.67773 14.8145 5.45117 15.1738C5.22461 15.5332 5.11133 15.9395 5.11133 16.3926C5.11133 16.7129 5.18555 17.0059 5.33398 17.2715C5.48242 17.5293 5.70898 17.7715 6.01367 17.998C6.31836 18.2168 6.70117 18.4238 7.16211 18.6191C7.62305 18.8145 8.16602 19.002 8.79102 19.1816C9.73633 19.4629 10.5605 19.7754 11.2637 20.1191C11.9668 20.4551 12.5527 20.8379 13.0215 21.2676C13.4902 21.6973 13.8418 22.1855 14.0762 22.7324C14.3105 23.2715 14.4277 23.8848 14.4277 24.5723C14.4277 25.291 14.2832 25.9395 13.9941 26.5176C13.7051 27.0879 13.291 27.5762 12.752 27.9824C12.2207 28.3809 11.5801 28.6895 10.8301 28.9082C10.0879 29.1191 9.25977 29.2246 8.3457 29.2246C7.52539 29.2246 6.7168 29.1152 5.91992 28.8965C5.13086 28.6777 4.41211 28.3457 3.76367 27.9004C3.11523 27.4473 2.59961 26.8848 2.2168 26.2129C1.83398 25.5332 1.64258 24.7402 1.64258 23.834H4.58398C4.58398 24.3887 4.67773 24.8613 4.86523 25.252C5.06055 25.6426 5.33008 25.9629 5.67383 26.2129C6.01758 26.4551 6.41602 26.6348 6.86914 26.752C7.33008 26.8691 7.82227 26.9277 8.3457 26.9277C9.0332 26.9277 9.60742 26.8301 10.0684 26.6348C10.5371 26.4395 10.8887 26.166 11.123 25.8145C11.3574 25.4629 11.4746 25.0566 11.4746 24.5957ZM28.1973 26.6582V28.9902H19.1387V26.6582H28.1973ZM19.9707 11.9277V28.9902H17.0293V11.9277H19.9707ZM27.0137 19.0527V21.3496H19.1387V19.0527H27.0137ZM28.1387 11.9277V14.2715H19.1387V11.9277H28.1387ZM41.7676 26.6582V28.9902H32.709V26.6582H41.7676ZM33.541 11.9277V28.9902H30.5996V11.9277H33.541ZM40.584 19.0527V21.3496H32.709V19.0527H40.584ZM41.709 11.9277V14.2715H32.709V11.9277H41.709ZM56.791 14.2012L51.6934 28.9902H48.6113L55.0332 11.9277H57.002L56.791 14.2012ZM61.0566 28.9902L55.9473 14.2012L55.7246 11.9277H57.7051L64.1504 28.9902H61.0566ZM60.8105 22.6621V24.9941H51.5293V22.6621H60.8105ZM76.748 26.6582V28.9902H68.1816V26.6582H76.748ZM69.002 11.9277V28.9902H66.0605V11.9277H69.002ZM89.709 26.6582V28.9902H81.1426V26.6582H89.709ZM81.9629 11.9277V28.9902H79.0215V11.9277H81.9629Z" fill="#00BCD4"/>
<path fill-rule="evenodd" clip-rule="evenodd" d="M139.947 21.8256H164.256L153.052 33.0542L155.953 35.8612L171.959 19.8205L155.953 3.77979L153.153 6.58681L164.256 17.8154H139.947V21.8256Z" fill="#00BCD4"/>
</svg>
