<svg width="35" height="36" viewBox="0 0 35 36" fill="none" xmlns="http://www.w3.org/2000/svg">
<path d="M33.7695 15.5508L29.668 12.8164L30.625 7.96289C30.7617 7.07422 30.4883 6.11719 29.873 5.43359C29.1895 4.81836 28.2324 4.54492 27.3438 4.68164L22.4902 5.63867L19.7559 1.53711C18.7305 0.0332031 16.2012 0.0332031 15.1758 1.53711L12.4414 5.63867L7.58789 4.68164C6.69922 4.54492 5.74219 4.81836 5.12695 5.50195C4.44336 6.11719 4.16992 7.07422 4.30664 7.96289L5.26367 12.8164L1.16211 15.5508C0.410156 16.0977 0 16.918 0 17.875C0 18.7637 0.410156 19.6523 1.16211 20.1309L5.26367 22.9336L4.30664 27.7871C4.16992 28.6758 4.44336 29.6328 5.12695 30.248C5.74219 30.9316 6.63086 31.2051 7.58789 31L12.4414 30.1113L15.1758 34.2129C15.7227 34.9648 16.543 35.375 17.5 35.375C18.3887 35.375 19.2773 34.9648 19.7559 34.2129L22.4902 30.1113L27.3438 31C28.3008 31.2051 29.1895 30.9316 29.873 30.248C30.4883 29.6328 30.7617 28.6758 30.625 27.7871L29.668 22.9336L33.7695 20.1992C34.5215 19.6523 35 18.7637 35 17.875C35 16.918 34.5215 16.0977 33.7695 15.5508ZM26.0449 21.4297L27.207 27.6504L20.9863 26.4883L17.5 31.6836L13.9453 26.4199L7.72461 27.6504L8.88672 21.4297L3.69141 17.875L8.88672 14.3203L7.72461 8.09961L13.9453 9.26172L17.5 3.99805L20.9863 9.26172L27.207 8.09961L26.0449 14.3203L31.3086 17.875L26.0449 21.4297ZM17.5 10.7656C13.5352 10.7656 10.3906 13.9785 10.3906 17.875C10.3906 21.8398 13.5352 24.9844 17.5 24.9844C21.3965 24.9844 24.6094 21.8398 24.6094 17.875C24.6094 13.9785 21.3965 10.7656 17.5 10.7656ZM17.5 21.7031C15.3809 21.7031 13.6719 19.9941 13.6719 17.875C13.6719 15.8242 15.3809 14.0469 17.5 14.0469C19.5508 14.0469 21.3281 15.8242 21.3281 17.875C21.3281 19.9941 19.5508 21.7031 17.5 21.7031Z" fill="#252641" fill-opacity="0.5"/>
</svg>
