<svg width="137" height="24" viewBox="0 0 137 24" fill="none" xmlns="http://www.w3.org/2000/svg">
<path d="M11.9875 0L16.0742 6.36261L23.3883 8.28316L18.6 14.136L19.0336 21.6856L11.9875 18.9403L4.94142 21.6856L5.37504 14.136L0.58671 8.28316L7.90078 6.36261L11.9875 0Z" fill="#FBA333"/>
<path d="M40.2434 0L44.3301 6.36261L51.6441 8.28316L46.8558 14.136L47.2894 21.6856L40.2434 18.9403L33.1973 21.6856L33.6309 14.136L28.8426 8.28316L36.1566 6.36261L40.2434 0Z" fill="#FBA333"/>
<path d="M68.4992 0L72.5859 6.36261L79.9 8.28316L75.1117 14.136L75.5453 21.6856L68.4992 18.9403L61.4531 21.6856L61.8868 14.136L57.0984 8.28316L64.4125 6.36261L68.4992 0Z" fill="#FBA333"/>
<path d="M96.757 0L100.844 6.36261L108.158 8.28316L103.369 14.136L103.803 21.6856L96.757 18.9403L89.711 21.6856L90.1446 14.136L85.3562 8.28316L92.6703 6.36261L96.757 0Z" fill="#FBA333"/>
<path d="M125.013 0L129.1 6.36261L136.414 8.28316L131.625 14.136L132.059 21.6856L125.013 18.9403L117.967 21.6856L118.4 14.136L113.612 8.28316L120.926 6.36261L125.013 0Z" fill="#FBA333"/>
</svg>
